<svg viewBox="0 0 200 280" xmlns="http://www.w3.org/2000/svg" aria-label="ST-shape valve with UX4 base.">
  <defs>
    <linearGradient id="glass" x1="0" x2="1" y1="0" y2="0">
      <stop offset="0" stop-color="#dfe6ec"/>
      <stop offset="0.5" stop-color="#f6f9fc"/>
      <stop offset="1" stop-color="#b8c2cb"/>
    </linearGradient>
    <linearGradient id="base" x1="0" x2="0" y1="0" y2="1">
      <stop offset="0" stop-color="#2a1f15"/>
      <stop offset="1" stop-color="#181009"/>
    </linearGradient>
  </defs>
  <path d="M70,40 Q70,18 100,18 Q130,18 130,40 L150,120 Q150,180 100,180 Q50,180 50,120 Z" fill="url(#glass)" stroke="#3a3a3a" stroke-width="1.3"/>
  <circle cx="100" cy="18" r="3" fill="#222"/>
  <rect x="78" y="60" width="18" height="70" fill="#3b3b3b" stroke="#222" stroke-width="0.8"/>
  <rect x="104" y="60" width="18" height="70" fill="#3b3b3b" stroke="#222" stroke-width="0.8"/>
  <path d="M87,130 Q100,150 113,130" fill="none" stroke="#c84a14" stroke-width="1.3"/>
  <line x1="100" y1="55" x2="100" y2="180" stroke="#666" stroke-width="0.6"/>
  <rect x="60" y="180" width="80" height="38" rx="3" fill="url(#base)"/>
  <rect x="60" y="180" width="80" height="6" fill="#0d0805"/>
  <rect x="70" y="218" width="8" height="34" rx="2" fill="#b9a37a" stroke="#6a5b3e"/>
  <rect x="122" y="218" width="8" height="34" rx="2" fill="#b9a37a" stroke="#6a5b3e"/>
  <rect x="92" y="218" width="5" height="30" rx="1.5" fill="#b9a37a" stroke="#6a5b3e"/>
  <rect x="103" y="218" width="5" height="30" rx="1.5" fill="#b9a37a" stroke="#6a5b3e"/>
  <text x="100" y="206" text-anchor="middle" font-family="Helvetica, sans-serif" font-size="9" fill="#e7d6a8" letter-spacing="1.5">{{CODE}}</text>
</svg>
